<svg width="1299" height="703" viewBox="0 0 1299 703" fill="none" xmlns="http://www.w3.org/2000/svg">
<rect width="1299" height="703" rx="60" fill="#FAFAFA"/>
<rect x="126" y="119" width="1012" height="106" rx="50" fill="white"/>
<rect x="128" y="239" width="1012" height="106" rx="50" fill="white"/>
<rect x="128" y="359" width="1012" height="106" rx="50" fill="white"/>
<rect x="128" y="479" width="1012" height="106" rx="50" fill="white"/>
<path d="M252 136C252 130.477 256.477 126 262 126H987C1012.41 126 1033 146.595 1033 172C1033 197.405 1012.41 218 987 218H262C256.477 218 252 213.523 252 208V136Z" fill="#F5F5F5"/>
<path d="M252 256C252 250.477 256.477 246 262 246H754C779.405 246 800 266.595 800 292C800 317.405 779.405 338 754 338H262C256.477 338 252 333.523 252 328V256Z" fill="#F5F5F5"/>
<path d="M252 376C252 370.477 256.477 366 262 366H886C911.405 366 932 386.595 932 412C932 437.405 911.405 458 886 458H262C256.477 458 252 453.523 252 448V376Z" fill="#F5F5F5"/>
<path d="M252 496C252 490.477 256.477 486 262 486H491C516.405 486 537 506.595 537 532C537 557.405 516.405 578 491 578H262C256.477 578 252 573.523 252 568V496Z" fill="#F5F5F5"/>
<circle cx="183" cy="172" r="50" fill="#86CDAC"/>
<circle cx="1092.5" cy="171.5" r="17.5" fill="#86CDAC"/>
<circle cx="1092.5" cy="291.5" r="17.5" fill="#F15C5E"/>
<circle cx="1092.5" cy="411.5" r="17.5" fill="#EEAA37"/>
<circle cx="1092.5" cy="532.5" r="17.5" fill="#5596F8"/>
<circle cx="183" cy="292" r="50" fill="#F15C5E"/>
<circle cx="183" cy="412" r="50" fill="#EEAA37"/>
<circle cx="183" cy="532" r="50" fill="#5596F8"/>
</svg>
